# xmcd
#
# Track frame offsets:
#	150
#	11808
#	23623
#	34883
#	48702
#	60840
#	70943
#	81326
#	91649
#	103052
#	112520
#	125318
#	136107
#	148927
#	162010
#	180545
#	192323
#	204041
#	214913
#	225432
#	236555
#	247395
#	261858
#	273336
#
# Disc length: 3795 seconds
#
# Revision: 0
# Processed by: cddbd v1.5.2PL0 Copyright (c) Steve Scherf et al.
# Submitted via: EasyCDDAExtractor 16.0.1.1
#
DISCID=450ed118
DTITLE=Charlie Louvin - I Forgot To Cry and Will You Visit Me On Sundays?
DYEAR=1967
DGENRE=Country
TTITLE0=I Forgot To Cry
TTITLE1=Too Little And Too Late
TTITLE2=Looking For A Thing Called Happiness
TTITLE3=Someone's Heartache
TTITLE4=The Perfect Stranger
TTITLE5=I'll Be Glad To Help You Out
TTITLE6=On The Other Hand
TTITLE7=Off And On
TTITLE8=Drive Me Out Of My Mind
TTITLE9=No Other Way To Turn
TTITLE10=You're The Sad In My Song
TTITLE11=Sunday Morning
TTITLE12=Will You Visit Me On Sundays
TTITLE13=Which-A-Way
TTITLE14=Honey
TTITLE15=Still Loving You
TTITLE16=Say It's Not You
TTITLE17=Tear Your Merry-G-Round Down
TTITLE18=The Only Way Out (Is To Walk Over Me)
TTITLE19=Just For You
TTITLE20=Tears  Wine And Flowers
TTITLE21=The Last Foxhole
TTITLE22=She Forgot To Take Me
TTITLE23=The Proof Is In The Kissing
EXTD=
EXTT0=
EXTT1=
EXTT2=
EXTT3=
EXTT4=
EXTT5=
EXTT6=
EXTT7=
EXTT8=
EXTT9=
EXTT10=
EXTT11=
EXTT12=
EXTT13=
EXTT14=
EXTT15=
EXTT16=
EXTT17=
EXTT18=
EXTT19=
EXTT20=
EXTT21=
EXTT22=
EXTT23=
PLAYORDER=
